<svg xmlns="http://www.w3.org/2000/svg" viewBox="0 0 1200 340" width="100%" height="100%">
  <defs>
    <!-- Fonts -->
    <style>
      @import url('https://fonts.googleapis.com/css2?family=Outfit:wght@400;500;600;800&amp;family=Fira+Code:wght@400;500&amp;display=swap');
      .title-text {
        font-family: 'Outfit', -apple-system, BlinkMacSystemFont, "Segoe UI", Roboto, sans-serif;
      }
      .tagline-text {
        font-family: 'Outfit', -apple-system, BlinkMacSystemFont, "Segoe UI", Roboto, sans-serif;
      }
      .badge-text {
        font-family: 'Outfit', -apple-system, BlinkMacSystemFont, "Segoe UI", Roboto, sans-serif;
      }
    </style>

    <!-- Gradients -->
    <linearGradient id="bgGrad" x1="0%" y1="0%" x2="100%" y2="100%">
      <stop offset="0%" stop-color="#0b0f19" />
      <stop offset="50%" stop-color="#0f172a" />
      <stop offset="100%" stop-color="#020617" />
    </linearGradient>

    <radialGradient id="blueGlow" cx="50%" cy="50%" r="50%">
      <stop offset="0%" stop-color="#2563eb" stop-opacity="0.25" />
      <stop offset="100%" stop-color="#2563eb" stop-opacity="0" />
    </radialGradient>

    <radialGradient id="yellowGlow" cx="50%" cy="50%" r="50%">
      <stop offset="0%" stop-color="#eab308" stop-opacity="0.15" />
      <stop offset="100%" stop-color="#eab308" stop-opacity="0" />
    </radialGradient>

    <!-- Python Snakes Gradients -->
    <linearGradient id="blueSnakeGrad" x1="0%" y1="100%" x2="100%" y2="0%">
      <stop offset="0%" stop-color="#1d4ed8" />
      <stop offset="50%" stop-color="#3b82f6" />
      <stop offset="100%" stop-color="#60a5fa" />
    </linearGradient>

    <linearGradient id="yellowSnakeGrad" x1="100%" y1="100%" x2="0%" y2="0%">
      <stop offset="0%" stop-color="#ca8a04" />
      <stop offset="50%" stop-color="#eab308" stop-opacity="0.9" />
      <stop offset="100%" stop-color="#fef08a" />
    </linearGradient>

    <!-- Crate Gradients -->
    <!-- Front Left Face -->
    <linearGradient id="boxOuterGradLeft" x1="0%" y1="100%" x2="100%" y2="0%">
      <stop offset="0%" stop-color="#1e293b" />
      <stop offset="100%" stop-color="#334155" />
    </linearGradient>

    <!-- Front Right Face -->
    <linearGradient id="boxOuterGradRight" x1="0%" y1="100%" x2="100%" y2="0%">
      <stop offset="0%" stop-color="#0f172a" />
      <stop offset="100%" stop-color="#1e293b" />
    </linearGradient>

    <!-- Inside Back Left Face -->
    <linearGradient id="boxInnerGradLeft" x1="0%" y1="0%" x2="100%" y2="100%">
      <stop offset="0%" stop-color="#030712" />
      <stop offset="100%" stop-color="#0f172a" />
    </linearGradient>

    <!-- Inside Back Right Face -->
    <linearGradient id="boxInnerGradRight" x1="0%" y1="0%" x2="100%" y2="100%">
      <stop offset="0%" stop-color="#020617" />
      <stop offset="100%" stop-color="#0f172a" />
    </linearGradient>

    <!-- Flaps -->
    <linearGradient id="flapGradTop" x1="0%" y1="0%" x2="100%" y2="100%">
      <stop offset="0%" stop-color="#475569" />
      <stop offset="100%" stop-color="#334155" />
    </linearGradient>

    <linearGradient id="flapGradBottom" x1="0%" y1="0%" x2="100%" y2="100%">
      <stop offset="0%" stop-color="#1e293b" />
      <stop offset="100%" stop-color="#0f172a" />
    </linearGradient>

    <!-- Text Gradients -->
    <linearGradient id="blueTextGrad" x1="0%" y1="0%" x2="100%" y2="0%">
      <stop offset="0%" stop-color="#38bdf8" />
      <stop offset="100%" stop-color="#2563eb" />
    </linearGradient>

    <linearGradient id="yellowTextGrad" x1="0%" y1="0%" x2="100%" y2="0%">
      <stop offset="0%" stop-color="#fef08a" />
      <stop offset="100%" stop-color="#eab308" />
    </linearGradient>

    <!-- Filters -->
    <filter id="shadow" x="-20%" y="-20%" width="140%" height="140%">
      <feDropShadow dx="0" dy="6" stdDeviation="6" flood-color="#020617" flood-opacity="0.6"/>
    </filter>

    <filter id="glow-blue" x="-30%" y="-30%" width="160%" height="160%">
      <feGaussianBlur stdDeviation="8" result="blur" />
      <feComposite in="SourceGraphic" in2="blur" operator="over" />
    </filter>
    
    <filter id="glow-red" x="-50%" y="-50%" width="200%" height="200%">
      <feGaussianBlur stdDeviation="5" result="blur" />
      <feColorMatrix type="matrix" values="1 0 0 0 0  0 1 0 0 0  0 0 1 0 0  0 0 0 2 0" />
      <feComposite in="SourceGraphic" in2="blur" operator="over" />
    </filter>

    <!-- Tech Grid Pattern -->
    <pattern id="grid" width="40" height="40" patternUnits="userSpaceOnUse">
      <path d="M 40 0 L 0 0 0 40" fill="none" stroke="#1e293b" stroke-width="1" opacity="0.4" />
    </pattern>
  </defs>

  <!-- Background -->
  <rect width="1200" height="340" fill="url(#bgGrad)" />
  <rect width="1200" height="340" fill="url(#grid)" />

  <!-- Background Glows -->
  <ellipse cx="230" cy="170" rx="300" ry="150" fill="url(#blueGlow)" />
  <ellipse cx="900" cy="170" rx="300" ry="150" fill="url(#yellowGlow)" />

  <!-- ==================== LEFT GRAPHIC (SAFE ZONE x:80..380 y:60..300) ==================== -->
  <g filter="url(#shadow)">
    
    <!-- 1. BACK FLAPS (Drawn behind the box and snakes) -->
    <!-- Back-Left Flap -->
    <path d="M 160,170 L 125,135 L 195,100 L 230,135 Z" fill="url(#flapGradBottom)" stroke="#334155" stroke-width="1" />
    <!-- Back-Right Flap -->
    <path d="M 230,135 L 265,100 L 335,135 L 300,170 Z" fill="url(#flapGradBottom)" stroke="#334155" stroke-width="1" />

    <!-- 2. BOX INSIDE BACK WALLS -->
    <path d="M 160,170 L 230,135 L 230,205 L 160,240 Z" fill="url(#boxInnerGradLeft)" />
    <path d="M 230,135 L 300,170 L 300,240 L 230,205 Z" fill="url(#boxInnerGradRight)" />

    <!-- 3. SNAKES EMERGING -->
    <!-- Yellow Snake (drawn slightly behind blue for depth) -->
    <path d="M 245,215 C 300,200 290,150 250,135 C 210,120 220,85 255,80" fill="none" stroke="url(#yellowSnakeGrad)" stroke-width="26" stroke-linecap="round" stroke-linejoin="round" />
    <!-- Yellow Head -->
    <path d="M 255,67 L 275,67 C 284,67 290,73 290,80 C 290,87 284,93 275,93 L 255,93 C 248,93 242,87 242,80 C 242,73 248,67 255,67 Z" fill="url(#yellowSnakeGrad)" />
    <!-- Yellow Eye -->
    <circle cx="278" cy="76" r="3.5" fill="#0f172a" />

    <!-- Blue Snake -->
    <path d="M 215,215 C 160,200 170,150 210,135 C 250,120 240,85 205,80" fill="none" stroke="url(#blueSnakeGrad)" stroke-width="26" stroke-linecap="round" stroke-linejoin="round" />
    <!-- Blue Head -->
    <path d="M 205,93 L 185,93 C 176,93 170,87 170,80 C 170,73 176,67 185,67 L 205,67 C 212,67 218,73 218,80 C 218,87 212,93 205,93 Z" fill="url(#blueSnakeGrad)" />
    <!-- Blue Eye -->
    <circle cx="182" cy="76" r="3.5" fill="#0f172a" />

    <!-- 4. BOX OUTSIDE FRONT WALLS -->
    <path d="M 160,240 L 230,275 L 230,205 L 160,170 Z" fill="url(#boxOuterGradLeft)" />
    <path d="M 230,275 L 300,240 L 300,170 L 230,205 Z" fill="url(#boxOuterGradRight)" />

    <!-- 5. FRONT FLAPS -->
    <!-- Left Flap -->
    <path d="M 160,170 L 125,205 L 195,240 L 230,205 Z" fill="url(#flapGradTop)" stroke="#475569" stroke-width="1" />
    <!-- Right Flap -->
    <path d="M 230,205 L 265,240 L 335,205 L 300,170 Z" fill="url(#flapGradTop)" stroke="#475569" stroke-width="1" />

    <!-- 6. GLOWING EDGES & CYBER ACCENTS -->
    <!-- Cyber rims of crate -->
    <path d="M 160,170 L 230,205 L 300,170" fill="none" stroke="#38bdf8" stroke-width="2" opacity="0.8" filter="url(#glow-blue)" />
    <path d="M 230,205 L 230,275" fill="none" stroke="#38bdf8" stroke-width="2" opacity="0.8" filter="url(#glow-blue)" />
    <path d="M 160,240 L 230,275 L 300,240" fill="none" stroke="#38bdf8" stroke-width="1.5" opacity="0.6" filter="url(#glow-blue)" />

    <!-- Embossed Logos on Crate Sides -->
    <!-- Left Face: Windows 11 Logo (Skewed) -->
    <g transform="translate(195, 222) skewY(26.57) scale(0.55)" opacity="0.75">
      <rect x="-18" y="-18" width="16" height="16" fill="#38bdf8" rx="1" />
      <rect x="-18" y="2" width="16" height="16" fill="#38bdf8" rx="1" />
      <rect x="2" y="-18" width="16" height="16" fill="#38bdf8" rx="1" />
      <rect x="2" y="2" width="16" height="16" fill="#38bdf8" rx="1" />
    </g>

    <!-- Right Face: Git Branch Icon (Skewed) -->
    <g transform="translate(265, 222) skewY(-26.57) scale(0.6)" opacity="0.8">
      <line x1="0" y1="-14" x2="0" y2="14" stroke="#eab308" stroke-width="4.5" stroke-linecap="round" />
      <path d="M 0,4 Q 12,4 14,-6" fill="none" stroke="#eab308" stroke-width="4.5" stroke-linecap="round" />
      <circle cx="0" cy="-14" r="5" fill="#eab308" />
      <circle cx="0" cy="14" r="5" fill="#eab308" />
      <circle cx="14" cy="-6" r="5" fill="#eab308" />
    </g>
  </g>

  <!-- ==================== FLOATING IDE SYMBOLS (Inside Safe Zone) ==================== -->
  <!-- Breakpoint & Line (Left) -->
  <g opacity="0.85">
    <line x1="85" y1="110" x2="135" y2="110" stroke="#ef4444" stroke-dasharray="3 3" stroke-width="2" opacity="0.6" />
    <circle cx="110" cy="110" r="7" fill="#ef4444" filter="url(#glow-red)" />
  </g>

  <!-- Floating Code Lines (Far Left) -->
  <g opacity="0.8">
    <rect x="85" y="142" width="22" height="5" rx="2.5" fill="#c084fc" />
    <rect x="112" y="142" width="30" height="5" rx="2.5" fill="#60a5fa" />
    <rect x="95" y="152" width="16" height="5" rx="2.5" fill="#f472b6" />
    <rect x="116" y="152" width="26" height="5" rx="2.5" fill="#f59e0b" />
  </g>

  <!-- Code Folding Icon [+] (Right of Crate) -->
  <g opacity="0.85">
    <rect x="345" y="170" width="18" height="18" rx="4" fill="#1e293b" stroke="#38bdf8" stroke-width="1.5" />
    <path d="M 350,179 L 358,179 M 354,175 L 354,183" stroke="#38bdf8" stroke-width="1.5" stroke-linecap="round" />
  </g>

  <!-- Glowing Debug Bug (Top Right of Crate) -->
  <g opacity="0.85">
    <ellipse cx="328" cy="95" rx="5" ry="8" fill="#10b981" />
    <circle cx="328" cy="85" r="2.5" fill="#10b981" />
    <path d="M 320,91 L 336,91 M 318,96 L 338,96 M 320,101 L 336,101" stroke="#10b981" stroke-width="1.5" stroke-linecap="round" />
    <path d="M 325,82 Q 323,79 320,78 M 331,82 Q 333,79 336,78" fill="none" stroke="#10b981" stroke-width="1" stroke-linecap="round" />
    <circle cx="328" cy="95" r="10" fill="none" stroke="#10b981" stroke-width="1" opacity="0.3" />
  </g>


  <!-- ==================== RIGHT CONTENT (SAFE ZONE x:440..1120 y:60..300) ==================== -->
  
  <!-- Wordmark -->
  <text x="440" y="170" class="title-text" font-size="88" font-weight="800" letter-spacing="-1.5" filter="url(#shadow)">
    <tspan fill="url(#blueTextGrad)">Python</tspan><tspan fill="url(#yellowTextGrad)">Box</tspan>
  </text>

  <!-- Tagline -->
  <text x="440" y="218" class="tagline-text" font-size="28" font-weight="500" fill="#cbd5e1" letter-spacing="-0.5">
    Lightweight Python IDE for Windows
  </text>

  <!-- Badges / Chips -->
  <!-- Chip 1: Code Folding -->
  <g transform="translate(440, 255)">
    <rect x="0" y="0" width="165" height="32" rx="16" fill="#1e293b" stroke="#334155" stroke-width="1" />
    <!-- Fold icon -->
    <rect x="14" y="10" width="12" height="12" rx="2" fill="none" stroke="#38bdf8" stroke-width="1.5" />
    <path d="M 17,16 L 23,16 M 20,13 L 20,19" stroke="#38bdf8" stroke-width="1.5" stroke-linecap="round" />
    <text x="36" y="21" class="badge-text" font-size="14" font-weight="600" fill="#e2e8f0">Code Folding</text>
  </g>

  <!-- Chip 2: PDB Debugger -->
  <g transform="translate(620, 255)">
    <rect x="0" y="0" width="165" height="32" rx="16" fill="#1e293b" stroke="#334155" stroke-width="1" />
    <!-- Run / Debug icon -->
    <polygon points="17,10 27,16 17,22" fill="#10b981" />
    <text x="36" y="21" class="badge-text" font-size="14" font-weight="600" fill="#e2e8f0">PDB Debugger</text>
  </g>

  <!-- Chip 3: Git Integration -->
  <g transform="translate(800, 255)">
    <rect x="0" y="0" width="175" height="32" rx="16" fill="#1e293b" stroke="#334155" stroke-width="1" />
    <!-- Git icon -->
    <line x1="16" y1="9" x2="16" y2="23" stroke="#eab308" stroke-width="2" stroke-linecap="round" />
    <path d="M 16,19 Q 22,19 24,14" fill="none" stroke="#eab308" stroke-width="2" stroke-linecap="round" />
    <circle cx="16" cy="9" r="2.5" fill="#eab308" />
    <circle cx="16" cy="23" r="2.5" fill="#eab308" />
    <circle cx="24" cy="14" r="2.5" fill="#eab308" />
    <text x="36" y="21" class="badge-text" font-size="14" font-weight="600" fill="#e2e8f0">Git Integration</text>
  </g>

</svg>
